<svg xmlns="http://www.w3.org/2000/svg" xmlns:xlink="http://www.w3.org/1999/xlink" id="Layer_1" version="1.1" viewBox="0 0 264 36"><defs><linearGradient id="linear-gradient" x1="-125.5" x2="-122.3" y1="8.5" y2="8.5" gradientTransform="rotate(-32.9 31.672 -533.752)" gradientUnits="userSpaceOnUse"><stop offset="0" stop-color="#ff542e"/><stop offset=".7" stop-color="#ff8e23"/><stop offset="1" stop-color="#ffa71f"/></linearGradient><linearGradient id="linear-gradient1" x1="233.8" x2="237.2" y1="18.4" y2="18.4" gradientUnits="userSpaceOnUse"><stop offset="0" stop-color="#3c7cd3"/><stop offset=".2" stop-color="#187ce2"/><stop offset=".4" stop-color="#007ded"/><stop offset=".6" stop-color="#008ff0"/><stop offset=".9" stop-color="#00c0fa"/><stop offset="1" stop-color="#00d9ff"/></linearGradient><linearGradient xlink:href="#linear-gradient" id="linear-gradient2" x1="-301.8" x2="-298.5" y1="-75.3" y2="-75.3"/><linearGradient xlink:href="#linear-gradient" id="linear-gradient3" x1="-450.9" x2="-447.6" y1="-140.8" y2="-140.8" gradientTransform="rotate(-77.1 -97.407 -391.44)"/><linearGradient xlink:href="#linear-gradient1" id="linear-gradient4" x1="32.5" x2="35.8" y1="2.2" y2="2.2" gradientTransform="rotate(-178.5 24.278 9.484)"/><linearGradient xlink:href="#linear-gradient1" id="linear-gradient5" x1="117.4" x2="120.7" y1="24.5" y2="24.5"/><radialGradient id="radial-gradient" cx="-424.7" cy="51" r="3.8" fx="-424.7" fy="51" gradientTransform="rotate(-77.1 -97.407 -391.44)" gradientUnits="userSpaceOnUse"><stop offset="0" stop-color="#00c431"/><stop offset=".2" stop-color="#0bb026"/><stop offset=".7" stop-color="#1f8f13"/><stop offset="1" stop-color="#27830d"/></radialGradient><radialGradient xlink:href="#radial-gradient" id="radial-gradient1" cx="-448.9" cy="-35.2" r="3.8" fx="-448.9" fy="-35.2"/><style>.st0{fill:url(#linear-gradient2)}.st1{fill:url(#linear-gradient1)}.st2{fill:url(#linear-gradient3)}.st3{fill:url(#linear-gradient5)}.st4{fill:url(#linear-gradient4)}.st5{fill:url(#radial-gradient)}.st6{fill:url(#linear-gradient)}.st7{fill:url(#radial-gradient1)}</style></defs><g><g><path d="M538.1 545.1c0 21.7-3.9 40.7-12 57.3-7.9 16.5-19.3 30.4-34.1 41.5-14.8 11.1-32.8 19.5-53.8 25.1-20.9 5.7-44.6 8.5-71 8.5s-50-2.8-71.2-8.5c-21.2-5.7-39.3-14-54.2-25.1-14.9-11.1-26.4-25-34.5-41.5-8-16.5-12.1-35.6-12.1-57.3s4.1-40.7 12.1-57.3c8-16.5 19.6-30.4 34.5-41.5 14.9-11.1 32.9-19.5 54.2-25.3 21.2-5.7 45-8.5 71.2-8.5s49.9 2.8 71 8.5 39.1 14 53.8 25.3c14.8 11.1 26.1 25 34.1 41.5 7.9 16.5 12 35.6 12 57.3ZM902 545.1c0 21.7-3.9 40.7-12 57.3-7.9 16.5-19.3 30.4-34.1 41.5-14.8 11.1-32.8 19.5-53.8 25.1-21.1 5.7-44.7 8.5-71 8.5s-50-2.8-71.2-8.5c-21.2-5.7-39.3-14-54.2-25.1-14.9-11.1-26.4-25-34.5-41.5-8-16.5-12.1-35.6-12.1-57.3s4.1-40.7 12.1-57.3c8-16.5 19.6-30.4 34.5-41.5 14.9-11.1 32.9-19.5 54.2-25.3 21.2-5.7 45-8.5 71.2-8.5s49.9 2.8 71 8.5 39.1 14 53.8 25.3c14.8 11.1 26.1 25 34.1 41.5s12 35.6 12 57.3ZM881 423.2l-27.6-25.9c-24.6-21.8-57.4-32-90.1-28.1l-49.8 5.9-6-50 49.8-5.9c47.1-5.7 94.4 9.2 129.8 40.7l.5.5 27.8 26-34.4 36.8Z"/><path d="M902 545.1c0 21.7-3.9 40.7-12 57.3-7.9 16.5-19.3 30.4-34.1 41.5-14.8 11.1-32.8 19.5-53.8 25.1-21.1 5.7-44.7 8.5-71 8.5s-50-2.8-71.2-8.5c-21.2-5.7-39.3-14-54.2-25.1-14.9-11.1-26.4-25-34.5-41.5-8-16.5-12.1-35.6-12.1-57.3s4.1-40.7 12.1-57.3c8-16.5 19.6-30.4 34.5-41.5 14.9-11.1 32.9-19.5 54.2-25.3 21.2-5.7 45-8.5 71.2-8.5s49.9 2.8 71 8.5 39.1 14 53.8 25.3c14.8 11.1 26.1 25 34.1 41.5s12 35.6 12 57.3Z"/></g><g id="NEYhbn.tif"><image xlink:href="BewakoofBirthday-264x36-Desktop-2-1.png" id="Layer_0" width="376" height="592" transform="matrix(.55787 -.22087 .18406 .46489 104.2 260.1)"/></g><path d="M365.8 416.4c4.2-1.3 8.5-2.1 12.9-2.5 22.6-1.8 40.3 2 59.4 7.2 21.1 5.7 39.1 14 53.8 25.3 14.8 11.1 26.1 25 34.1 41.5 7.9 16.5 12 35.6 12 57.3s-3.9 40.7-12 57.3c-7.9 16.5-19.3 30.4-34.1 41.5-14.8 11.1-32.8 19.5-53.8 25.1-20.9 5.7-44.6 8.5-71 8.5s-50-2.8-71.2-8.5c-21.2-5.7-39.3-14-54.2-25.1-14.9-11.1-26.4-25-34.5-41.5-8-16.5-12.1-35.6-12.1-57.3s3.9-41 11.6-57.4c.9-2 2.2-3.8 3.8-5.3 11.8-10.7 23-11.6 38.2-22.2l57.5-24.5 59.5-19.4Z"/></g><g><g><path d="M538.1 545.1c0 21.7-3.9 40.7-12 57.3-7.9 16.5-19.3 30.4-34.1 41.5-14.8 11.1-32.8 19.5-53.8 25.1-20.9 5.7-44.6 8.5-71 8.5s-50-2.8-71.2-8.5c-21.2-5.7-39.3-14-54.2-25.1-14.9-11.1-26.4-25-34.5-41.5-8-16.5-12.1-35.6-12.1-57.3s4.1-40.7 12.1-57.3c8-16.5 19.6-30.4 34.5-41.5 14.9-11.1 32.9-19.5 54.2-25.3 21.2-5.7 45-8.5 71.2-8.5s49.9 2.8 71 8.5 39.1 14 53.8 25.3c14.8 11.1 26.1 25 34.1 41.5 7.9 16.5 12 35.6 12 57.3ZM902 545.1c0 21.7-3.9 40.7-12 57.3-7.9 16.5-19.3 30.4-34.1 41.5-14.8 11.1-32.8 19.5-53.8 25.1-21.1 5.7-44.7 8.5-71 8.5s-50-2.8-71.2-8.5c-21.2-5.7-39.3-14-54.2-25.1-14.9-11.1-26.4-25-34.5-41.5-8-16.5-12.1-35.6-12.1-57.3s4.1-40.7 12.1-57.3c8-16.5 19.6-30.4 34.5-41.5 14.9-11.1 32.9-19.5 54.2-25.3 21.2-5.7 45-8.5 71.2-8.5s49.9 2.8 71 8.5 39.1 14 53.8 25.3c14.8 11.1 26.1 25 34.1 41.5s12 35.6 12 57.3ZM881 423.2l-27.6-25.9c-24.6-21.8-57.4-32-90.1-28.1l-49.8 5.9-6-50 49.8-5.9c47.1-5.7 94.4 9.2 129.8 40.7l.5.5 27.8 26-34.4 36.8Z"/><path d="M902 545.1c0 21.7-3.9 40.7-12 57.3-7.9 16.5-19.3 30.4-34.1 41.5-14.8 11.1-32.8 19.5-53.8 25.1-21.1 5.7-44.7 8.5-71 8.5s-50-2.8-71.2-8.5c-21.2-5.7-39.3-14-54.2-25.1-14.9-11.1-26.4-25-34.5-41.5-8-16.5-12.1-35.6-12.1-57.3s4.1-40.7 12.1-57.3c8-16.5 19.6-30.4 34.5-41.5 14.9-11.1 32.9-19.5 54.2-25.3 21.2-5.7 45-8.5 71.2-8.5s49.9 2.8 71 8.5 39.1 14 53.8 25.3c14.8 11.1 26.1 25 34.1 41.5s12 35.6 12 57.3Z"/></g><g id="NEYhbn.tif1" data-name="NEYhbn.tif"><image xlink:href="BewakoofBirthday-264x36-Desktop-2-2.png" id="Layer_01" width="376" height="592" data-name="Layer_0" transform="matrix(.55787 -.22087 .18406 .46489 104.2 260.1)"/></g><path d="M365.8 416.4c4.2-1.3 8.5-2.1 12.9-2.5 22.6-1.8 40.3 2 59.4 7.2 21.1 5.7 39.1 14 53.8 25.3 14.8 11.1 26.1 25 34.1 41.5 7.9 16.5 12 35.6 12 57.3s-3.9 40.7-12 57.3c-7.9 16.5-19.3 30.4-34.1 41.5-14.8 11.1-32.8 19.5-53.8 25.1-20.9 5.7-44.6 8.5-71 8.5s-50-2.8-71.2-8.5c-21.2-5.7-39.3-14-54.2-25.1-14.9-11.1-26.4-25-34.5-41.5-8-16.5-12.1-35.6-12.1-57.3s3.9-41 11.6-57.4c.9-2 2.2-3.8 3.8-5.3 11.8-10.7 23-11.6 38.2-22.2l57.5-24.5 59.5-19.4Z"/></g><g><path d="M201 22.5c0 2.1-.4 3.9-1.1 5.4-.7 1.6-1.8 2.9-3.2 3.9-1.4 1.1-3.1 1.9-5.1 2.4-2 .5-4.2.8-6.7.8s-4.8-.3-6.8-.8-3.7-1.3-5.2-2.4c-1.4-1.1-2.5-2.4-3.3-3.9-.8-1.6-1.1-3.4-1.1-5.4s.4-3.9 1.1-5.4c.8-1.6 1.9-2.9 3.3-3.9s3.1-1.9 5.2-2.4c2-.5 4.3-.8 6.8-.8s4.7.3 6.7.8 3.7 1.3 5.1 2.4c1.4 1.1 2.5 2.4 3.2 3.9.7 1.6 1.1 3.4 1.1 5.4Z"/><path d="M201 22.4c0 2.1-.4 3.9-1.1 5.5-.8 1.6-1.9 2.9-3.3 4s-3.2 1.9-5.2 2.4-4.3.8-6.8.8-4.8-.3-6.9-.8-3.8-1.4-5.2-2.4c-1.4-1.1-2.5-2.4-3.3-4-.8-1.6-1.2-3.4-1.2-5.5s.4-3.9 1.2-5.5c.8-1.6 1.9-2.9 3.3-4s3.2-1.9 5.2-2.4 4.3-.8 6.9-.8 4.8.3 6.8.8 3.8 1.4 5.2 2.4c1.4 1.1 2.5 2.4 3.3 4 .8 1.6 1.1 3.4 1.1 5.5Z"/><path d="M260.8 29.3v-1.7c-.1 0 1.9 0 2.8-1l.3 1.9s-1.6 1-3.2.8Z" class="st5"/><path d="M28.3 28c0 .9-.1 1.7-.4 2.4-.2.7-.6 1.2-1 1.7s-.9.9-1.5 1.2c-.6.3-1.3.5-2 .7-.7.2-1.5.3-2.3.4-.8 0-1.7.1-2.5.1h-17V11h18.7c.7 0 1.3.2 1.9.3s1.2.4 1.7.6c.5.3 1 .6 1.4 1.1.4.4.7 1 .9 1.6.2.6.3 1.4.3 2.2 0 1.5-.4 2.7-1.1 3.6s-1.9 1.5-3.5 1.8c1.1 0 2.1.3 2.9.5.8.3 1.5.6 2 1.1.5.5.9 1 1.1 1.7.3.7.4 1.4.4 2.3Zm-7.9-10.1c0-.3 0-.6-.1-.8 0-.3-.3-.5-.5-.7-.2-.2-.6-.4-1-.5-.4-.1-.9-.2-1.6-.2H8v4.4h9.3c.6 0 1.2 0 1.6-.2s.7-.3 1-.5.4-.4.5-.7c0-.3.1-.6.1-.8Zm1.5 9.3c0-.5 0-1-.3-1.3-.2-.3-.5-.6-.9-.7-.4-.2-.9-.3-1.5-.4s-1.3 0-2.2 0H8v5h11.3c.6 0 1.1-.2 1.5-.4.4-.2.7-.4.9-.8.2-.3.3-.7.3-1.3ZM58.1 33.3c-1.9.6-3.8 1.1-5.8 1.4-1.9.3-3.9.4-5.9.4s-4.8-.3-6.8-.8c-2-.6-3.7-1.3-5-2.4-1.4-1-2.4-2.3-3.1-3.8s-1.1-3.2-1.1-5.1.4-3.4 1.1-4.9c.7-1.5 1.7-2.8 3.1-3.9 1.3-1.1 2.9-2 4.8-2.6 1.9-.6 4-.9 6.3-.9s4.1.3 5.8.9 3.3 1.4 4.5 2.5c1.3 1.1 2.2 2.5 3 4.2s1 3.5 1 5.7v1.6H36.9c.2.7.5 1.4 1 2 .5.6 1.1 1.1 1.9 1.6s1.8.8 3 1c1.2.2 2.6.4 4.2.4s2.3 0 3.4-.2c1.1-.1 2.2-.3 3.1-.6 1-.2 1.8-.5 2.6-.8s1.4-.6 1.9-.9v5.5Zm-4.4-12.7c0-.6-.2-1.2-.5-1.8-.3-.6-.7-1.2-1.4-1.7-.6-.5-1.4-.9-2.4-1.2-1-.3-2.3-.5-3.8-.5s-2.6.2-3.7.5c-1 .4-1.9.8-2.6 1.3-.7.5-1.2 1.1-1.6 1.7-.4.6-.6 1.2-.7 1.7h16.8ZM86.2 11l6 16.3L98.7 11h6.6l-9.4 23.4h-7l-6.1-15.7-6.1 15.7h-7L60.3 11h6.6l6.3 15.9L79.3 11h7ZM127 34.4v-2.3c-.8.4-1.7.8-2.6 1.2-.9.3-1.9.6-2.9.9s-2 .4-3.1.5c-1.1.1-2.1.2-3.2.2s-2.5-.1-3.7-.4c-1.2-.2-2.2-.6-3.1-1.2-.9-.5-1.6-1.2-2.2-2.1s-.8-1.9-.8-3.2.4-2.9 1.3-3.9c.9-1.1 2.2-1.9 3.9-2.6 1.8-.7 4-1.2 6.7-1.5 2.7-.4 5.9-.6 9.6-.9v-.5c0-.4-.1-.8-.3-1.1s-.6-.7-1.1-1c-.5-.3-1.3-.5-2.2-.7s-2.1-.3-3.6-.3-2.3 0-3.4.2c-1.1.1-2.2.3-3.2.5s-2 .4-3 .7c-.9.3-1.8.6-2.5.9v-5.6c.8-.2 1.7-.4 2.7-.6 1-.2 2-.4 3.1-.5 1.1-.1 2.1-.3 3.2-.3s2.1-.1 3.1-.1c2 0 3.8.2 5.4.5 1.7.3 3.1.8 4.3 1.5 1.2.7 2.1 1.5 2.8 2.6.7 1 1 2.3 1 3.7v15.5h-6.3Zm0-10.7c-2.4 0-4.5.2-6.2.4-1.7.2-3.1.4-4.2.6-1.1.2-2 .5-2.6.7-.6.3-1.1.5-1.4.8-.3.3-.5.6-.6.8 0 .3-.1.5-.1.7s0 .5.2.8c.2.3.4.5.8.7.4.2.9.4 1.5.5.6.1 1.4.2 2.3.2s2.1 0 3-.2c1-.2 1.9-.4 2.8-.7s1.7-.6 2.5-1 1.5-.8 2.1-1.2v-3.1ZM160.7 34.4c-.1-1.3-.4-2.4-.9-3.4s-1.1-1.8-1.9-2.5c-.8-.7-1.6-1.3-2.6-1.7-.9-.5-1.9-.8-2.9-1.1-1-.3-2-.5-3-.6s-1.9-.2-2.8-.2h-1.9v9.3h-6.3V11h6.3v9h1.3c.9 0 1.8 0 2.7-.2.9-.1 1.9-.4 2.8-.6s1.8-.7 2.7-1.1c.9-.5 1.6-1 2.3-1.7.7-.7 1.3-1.4 1.7-2.3.5-.9.7-1.9.9-3h6.4c-.1 1.2-.4 2.4-.7 3.4s-.9 1.9-1.4 2.7c-.6.8-1.2 1.5-1.9 2.1-.7.6-1.4 1.1-2.1 1.5-.7.4-1.5.8-2.2 1.1-.7.3-1.4.5-2 .6.8.1 1.6.3 2.5.6.9.3 1.7.6 2.5 1.1.8.4 1.6 1 2.4 1.6.8.6 1.5 1.4 2.1 2.2.6.9 1.1 1.8 1.5 2.9.4 1.1.7 2.3.8 3.7h-6.5ZM249.5 16h-2c-.6 0-1.1.2-1.5.4s-.7.5-.9 1c-.2.4-.3 1-.3 1.7v.9h17.6v5h-17.6v9.3h-6.3V18.6c0-1.2.2-2.3.5-3.2.4-.9 1-1.8 1.8-2.4.8-.7 2-1.1 3.3-1.5 1.4-.4 3.1-.5 5.2-.5h14v5h-13.8ZM235.6 22.5c0 2.1-.4 3.9-1.1 5.4-.7 1.6-1.8 2.9-3.2 3.9-1.4 1.1-3.1 1.9-5.1 2.4-2 .5-4.3.8-6.7.8s-4.8-.3-6.8-.8-3.7-1.3-5.2-2.4c-1.4-1.1-2.5-2.4-3.3-3.9-.8-1.6-1.1-3.4-1.1-5.4s.4-3.9 1.1-5.4c.8-1.6 1.9-2.9 3.3-3.9s3.1-1.9 5.2-2.4c2-.5 4.3-.8 6.8-.8s4.7.3 6.7.8 3.7 1.3 5.1 2.4c1.4 1.1 2.5 2.4 3.2 3.9.8 1.6 1.1 3.4 1.1 5.4ZM233.6 11 231 8.5c-2.3-2.1-5.5-3-8.6-2.7l-4.7.6-.6-4.8 4.7-.6c4.5-.5 9 .9 12.3 3.9s2.6 2.5 2.6 2.5l-3.3 3.5Z"/><path d="M236 22.4c0 2.1-.4 3.9-1.1 5.5-.8 1.6-1.9 2.9-3.3 4s-3.2 1.9-5.2 2.4-4.3.8-6.8.8-4.8-.3-6.9-.8-3.8-1.4-5.2-2.4c-1.4-1.1-2.5-2.4-3.3-4-.8-1.6-1.2-3.4-1.2-5.5s.4-3.9 1.2-5.5c.8-1.6 1.9-2.9 3.3-4s3.2-1.9 5.2-2.4 4.3-.8 6.9-.8 4.8.3 6.8.8 3.8 1.4 5.2 2.4c1.4 1.1 2.5 2.4 3.3 4 .8 1.6 1.1 3.4 1.1 5.5ZM234 10.7l-2.7-2.5c-2.4-2.1-5.5-3.1-8.7-2.7l-4.8.6-.6-4.8 4.8-.6c4.5-.5 9.1.9 12.5 3.9s2.7 2.5 2.7 2.5l-3.3 3.5Z"/><path d="M236 22.4c0 2.1-.4 3.9-1.1 5.5-.8 1.6-1.9 2.9-3.3 4s-3.2 1.9-5.2 2.4-4.3.8-6.8.8-4.8-.3-6.9-.8-3.8-1.4-5.2-2.4c-1.4-1.1-2.5-2.4-3.3-4-.8-1.6-1.2-3.4-1.2-5.5s.4-3.9 1.2-5.5c.8-1.6 1.9-2.9 3.3-4s3.2-1.9 5.2-2.4 4.3-.8 6.9-.8 4.8.3 6.8.8 3.8 1.4 5.2 2.4c1.4 1.1 2.5 2.4 3.3 4 .8 1.6 1.1 3.4 1.1 5.5ZM184.4 10c.4-.1.8-.2 1.2-.2 2.2-.2 3.9.2 5.7.7 2 .5 3.8 1.4 5.2 2.4 1.4 1.1 2.5 2.4 3.3 4 .8 1.6 1.1 3.4 1.1 5.5s-.4 3.9-1.1 5.5c-.8 1.6-1.9 2.9-3.3 4s-3.2 1.9-5.2 2.4-4.3.8-6.8.8-4.8-.3-6.9-.8-3.8-1.4-5.2-2.4c-1.4-1.1-2.5-2.4-3.3-4-.8-1.6-1.2-3.4-1.2-5.5s.4-3.9 1.1-5.5.2-.4.4-.5c1.1-1 2.2-1.1 3.7-2.1l5.5-2.4 5.7-1.9Z"/><path d="m193.6 5.9 1.1-1.3s1.4 1.4 2.8 1.4l-1.1 1.6s-1.9-.4-2.8-1.6Z" class="st6"/><path d="M171.4 33.6v-1.7c-.1 0 1.9 0 2.8-1l.3 1.9s-1.6 1-3.2.8Z" class="st7"/><path d="m234.7 20.2-.9-1.4s1.8-.9 2.2-2.2l1.2 1.5s-1 1.6-2.4 2.2Z" class="st1"/><path d="m0 31.2 1.1-1.3s1.4 1.4 2.8 1.4l-1.1 1.6S.9 32.5 0 31.3Z" class="st0"/><path d="M66.9 8.8V7.1c-.1 0 1.9 0 2.8-1L70 8s-1.6 1-3.2.8Z" class="st2"/><path d="m15 14.7.9 1.5s-1.8.8-2.2 2.2l-1.1-1.5s1-1.6 2.5-2.1Z" class="st4"/><path d="m118.3 26.4-.9-1.4s1.8-.9 2.2-2.2l1.2 1.5s-1 1.6-2.4 2.2Z" class="st3"/></g></svg>